<svg xmlns="http://www.w3.org/2000/svg" viewBox="0 0 100 100" width="100" height="100">
    <!-- Main Circle -->
    <circle cx="50" cy="50" r="45" fill="#6366f1" />
    
    <!-- Inner Circle with Gradient -->
    <circle cx="50" cy="50" r="40" fill="url(#gradient)" />
    
    <!-- Lightbulb Icon -->
    <path d="M50 20C40.6 20 33 27.6 33 37c0 4.7 1.9 9 5 12.1 2.8 2.8 4 6.3 4 9.9v1h16v-1c0-3.6 1.2-7.1 4-9.9 3.1-3.1 5-7.4 5-12.1 0-9.4-7.6-17-17-17z" fill="#ffffff" />
    
    <!-- Lightbulb Base -->
    <rect x="44" y="60" width="12" height="4" rx="1" fill="#ffffff" />
    <rect x="46" y="64" width="8" height="4" rx="1" fill="#ffffff" />
    
    <!-- Brain Circuits -->
    <path d="M50 32c-2.8 0-5 2.2-5 5s2.2 5 5 5 5-2.2 5-5-2.2-5-5-5zm0 8c-1.7 0-3-1.3-3-3s1.3-3 3-3 3 1.3 3 3-1.3 3-3 3z" fill="#8b5cf6" />
    <path d="M58 37c0 1.1-.9 2-2 2m-12-2c0 1.1.9 2 2 2" stroke="#8b5cf6" stroke-width="2" fill="none" />
    <path d="M45 42c-1.1 0-2 .9-2 2s.9 2 2 2m10 0c1.1 0 2-.9 2-2s-.9-2-2-2" stroke="#8b5cf6" stroke-width="2" fill="none" />
    
    <!-- Data Points -->
    <circle cx="38" cy="32" r="2" fill="#10b981" />
    <circle cx="62" cy="32" r="2" fill="#10b981" />
    <circle cx="35" cy="42" r="2" fill="#10b981" />
    <circle cx="65" cy="42" r="2" fill="#10b981" />
    <circle cx="38" cy="52" r="2" fill="#10b981" />
    <circle cx="62" cy="52" r="2" fill="#10b981" />
    
    <!-- Connecting Lines -->
    <line x1="40" y1="32" x2="45" y2="37" stroke="#8b5cf6" stroke-width="1" />
    <line x1="55" y1="37" x2="60" y2="32" stroke="#8b5cf6" stroke-width="1" />
    <line x1="37" y1="42" x2="43" y2="42" stroke="#8b5cf6" stroke-width="1" />
    <line x1="57" y1="42" x2="63" y2="42" stroke="#8b5cf6" stroke-width="1" />
    <line x1="40" y1="52" x2="44" y2="47" stroke="#8b5cf6" stroke-width="1" />
    <line x1="56" y1="47" x2="60" y2="52" stroke="#8b5cf6" stroke-width="1" />
    
    <!-- Gradients -->
    <defs>
        <linearGradient id="gradient" x1="0%" y1="0%" x2="100%" y2="100%">
            <stop offset="0%" stop-color="#6366f1" />
            <stop offset="100%" stop-color="#8b5cf6" />
        </linearGradient>
    </defs>
</svg> 