<svg xmlns="http://www.w3.org/2000/svg" viewBox="0 0 200 200" width="200" height="200">
    <defs>
        <linearGradient id="bg-gradient" x1="0%" y1="0%" x2="100%" y2="100%">
            <stop offset="0%" stop-color="#10b981" />
            <stop offset="100%" stop-color="#34d399" />
        </linearGradient>
    </defs>
    
    <!-- Background Circle -->
    <circle cx="100" cy="100" r="100" fill="url(#bg-gradient)" />
    
    <!-- Face/Avatar -->
    <circle cx="100" cy="85" r="40" fill="#f8fafc" />
    
    <!-- Hair -->
    <path d="M60,70 C60,60 70,45 100,45 C130,45 140,60 140,70 L140,85 C140,85 135,75 130,70 C125,65 115,60 100,60 C85,60 75,65 70,70 C65,75 60,85 60,85 L60,70 Z" fill="#1e293b" />
    
    <!-- Facial Hair -->
    <path d="M85,95 C90,105 110,105 115,95 L115,105 C115,110 110,115 100,115 C90,115 85,110 85,105 L85,95 Z" fill="#1e293b" />
    
    <!-- Eyes -->
    <circle cx="85" cy="80" r="5" fill="#1e293b" />
    <circle cx="115" cy="80" r="5" fill="#1e293b" />
    
    <!-- Glasses -->
    <rect x="75" y="75" width="20" height="10" rx="5" fill="none" stroke="#1e293b" stroke-width="2" />
    <rect x="105" y="75" width="20" height="10" rx="5" fill="none" stroke="#1e293b" stroke-width="2" />
    <line x1="95" y1="80" x2="105" y2="80" stroke="#1e293b" stroke-width="2" />
    
    <!-- Body/Shoulders -->
    <path d="M70,140 C70,125 85,120 100,120 C115,120 130,125 130,140" fill="#f8fafc" />
</svg> 