<svg xmlns="http://www.w3.org/2000/svg" viewBox="0 0 200 200" width="200" height="200">
    <defs>
        <linearGradient id="bg-gradient" x1="0%" y1="0%" x2="100%" y2="100%">
            <stop offset="0%" stop-color="#f97316" />
            <stop offset="100%" stop-color="#fb923c" />
        </linearGradient>
    </defs>
    
    <!-- Background Circle -->
    <circle cx="100" cy="100" r="100" fill="url(#bg-gradient)" />
    
    <!-- Face/Avatar -->
    <circle cx="100" cy="85" r="40" fill="#f8fafc" />
    
    <!-- Hair -->
    <path d="M60,75 C60,55 75,45 100,45 C125,45 140,55 140,75 C140,75 140,65 135,60 C130,55 125,50 100,50 C75,50 70,55 65,60 C60,65 60,75 60,75 Z" fill="#1e293b" />
    <path d="M62,70 C62,60 68,55 75,55 C68,60 65,65 62,70 Z" fill="#1e293b" />
    <path d="M138,70 C138,60 132,55 125,55 C132,60 135,65 138,70 Z" fill="#1e293b" />
    
    <!-- Eyes -->
    <circle cx="85" cy="80" r="5" fill="#1e293b" />
    <circle cx="115" cy="80" r="5" fill="#1e293b" />
    
    <!-- Smile -->
    <path d="M85,95 C90,105 110,105 115,95" fill="none" stroke="#1e293b" stroke-width="3" stroke-linecap="round" />
    
    <!-- Earrings -->
    <circle cx="60" cy="85" r="3" fill="#f97316" />
    <circle cx="140" cy="85" r="3" fill="#f97316" />
    
    <!-- Body/Shoulders -->
    <path d="M65,135 C65,120 80,115 100,115 C120,115 135,120 135,135" fill="#f8fafc" />
    
    <!-- Necklace -->
    <path d="M80,125 C85,135 115,135 120,125" fill="none" stroke="#f97316" stroke-width="2" />
    <circle cx="100" cy="133" r="3" fill="#f97316" />
</svg>